<?xml version="1.0" encoding="UTF-8" standalone="no"?>
<!DOCTYPE svg PUBLIC "-//W3C//DTD SVG 1.1//EN"
 "http://www.w3.org/Graphics/SVG/1.1/DTD/svg11.dtd">
<!-- Generated by graphviz version 2.43.0 (0)
 -->
<!-- Title: %3 Pages: 1 -->
<svg width="1256pt" height="548pt"
 viewBox="0.00 0.00 1256.21 548.00" xmlns="http://www.w3.org/2000/svg" xmlns:xlink="http://www.w3.org/1999/xlink">
<g id="graph0" class="graph" transform="scale(1 1) rotate(0) translate(4 544)">
<title>%3</title>
<polygon fill="white" stroke="transparent" points="-4,4 -4,-544 1252.21,-544 1252.21,4 -4,4"/>
<!-- [root] aws_eip.nat_eip (expand) -->
<g id="node1" class="node">
<title>[root] aws_eip.nat_eip (expand)</title>
<polygon fill="none" stroke="black" points="389.88,-108 260.88,-108 260.88,-72 389.88,-72 389.88,-108"/>
<text text-anchor="middle" x="325.38" y="-86.3" font-family="Times,serif" font-size="14.00">aws_eip.nat_eip</text>
</g>
<!-- [root] provider[&quot;registry.terraform.io/hashicorp/aws&quot;] -->
<g id="node14" class="node">
<title>[root] provider[&quot;registry.terraform.io/hashicorp/aws&quot;]</title>
<polygon fill="none" stroke="black" points="325.38,-36 0.12,-18 325.38,0 650.65,-18 325.38,-36"/>
<text text-anchor="middle" x="325.38" y="-14.3" font-family="Times,serif" font-size="14.00">provider[&quot;registry.terraform.io/hashicorp/aws&quot;]</text>
</g>
<!-- [root] aws_eip.nat_eip (expand)&#45;&gt;[root] provider[&quot;registry.terraform.io/hashicorp/aws&quot;] -->
<g id="edge1" class="edge">
<title>[root] aws_eip.nat_eip (expand)&#45;&gt;[root] provider[&quot;registry.terraform.io/hashicorp/aws&quot;]</title>
<path fill="none" stroke="black" d="M325.38,-71.7C325.38,-63.98 325.38,-54.71 325.38,-46.11"/>
<polygon fill="black" stroke="black" points="328.88,-46.1 325.38,-36.1 321.88,-46.1 328.88,-46.1"/>
</g>
<!-- [root] aws_instance.private (expand) -->
<g id="node2" class="node">
<title>[root] aws_instance.private (expand)</title>
<polygon fill="none" stroke="black" points="1223.88,-252 1056.88,-252 1056.88,-216 1223.88,-216 1223.88,-252"/>
<text text-anchor="middle" x="1140.38" y="-230.3" font-family="Times,serif" font-size="14.00">aws_instance.private</text>
</g>
<!-- [root] aws_security_group.all_traffic (expand) -->
<g id="node10" class="node">
<title>[root] aws_security_group.all_traffic (expand)</title>
<polygon fill="none" stroke="black" points="1234.88,-180 1005.88,-180 1005.88,-144 1234.88,-144 1234.88,-180"/>
<text text-anchor="middle" x="1120.38" y="-158.3" font-family="Times,serif" font-size="14.00">aws_security_group.all_traffic</text>
</g>
<!-- [root] aws_instance.private (expand)&#45;&gt;[root] aws_security_group.all_traffic (expand) -->
<g id="edge2" class="edge">
<title>[root] aws_instance.private (expand)&#45;&gt;[root] aws_security_group.all_traffic (expand)</title>
<path fill="none" stroke="black" d="M1135.44,-215.7C1133.21,-207.9 1130.53,-198.51 1128.05,-189.83"/>
<polygon fill="black" stroke="black" points="1131.38,-188.76 1125.27,-180.1 1124.65,-190.68 1131.38,-188.76"/>
</g>
<!-- [root] aws_subnet.private (expand) -->
<g id="node11" class="node">
<title>[root] aws_subnet.private (expand)</title>
<polygon fill="none" stroke="black" points="702.88,-180 547.88,-180 547.88,-144 702.88,-144 702.88,-180"/>
<text text-anchor="middle" x="625.38" y="-158.3" font-family="Times,serif" font-size="14.00">aws_subnet.private</text>
</g>
<!-- [root] aws_instance.private (expand)&#45;&gt;[root] aws_subnet.private (expand) -->
<g id="edge3" class="edge">
<title>[root] aws_instance.private (expand)&#45;&gt;[root] aws_subnet.private (expand)</title>
<path fill="none" stroke="black" d="M1056.78,-217.42C1053.61,-216.92 1050.47,-216.45 1047.38,-216 902.37,-194.98 862.16,-202.06 713.09,-180.03"/>
<polygon fill="black" stroke="black" points="713.52,-176.55 703.11,-178.53 712.48,-183.47 713.52,-176.55"/>
</g>
<!-- [root] aws_instance.public (expand) -->
<g id="node3" class="node">
<title>[root] aws_instance.public (expand)</title>
<polygon fill="none" stroke="black" points="1038.88,-252 879.88,-252 879.88,-216 1038.88,-216 1038.88,-252"/>
<text text-anchor="middle" x="959.38" y="-230.3" font-family="Times,serif" font-size="14.00">aws_instance.public</text>
</g>
<!-- [root] aws_instance.public (expand)&#45;&gt;[root] aws_security_group.all_traffic (expand) -->
<g id="edge4" class="edge">
<title>[root] aws_instance.public (expand)&#45;&gt;[root] aws_security_group.all_traffic (expand)</title>
<path fill="none" stroke="black" d="M998.77,-215.88C1020.78,-206.31 1048.39,-194.3 1071.74,-184.15"/>
<polygon fill="black" stroke="black" points="1073.35,-187.27 1081.12,-180.07 1070.56,-180.85 1073.35,-187.27"/>
</g>
<!-- [root] aws_subnet.public (expand) -->
<g id="node12" class="node">
<title>[root] aws_subnet.public (expand)</title>
<polygon fill="none" stroke="black" points="529.38,-180 381.38,-180 381.38,-144 529.38,-144 529.38,-180"/>
<text text-anchor="middle" x="455.38" y="-158.3" font-family="Times,serif" font-size="14.00">aws_subnet.public</text>
</g>
<!-- [root] aws_instance.public (expand)&#45;&gt;[root] aws_subnet.public (expand) -->
<g id="edge5" class="edge">
<title>[root] aws_instance.public (expand)&#45;&gt;[root] aws_subnet.public (expand)</title>
<path fill="none" stroke="black" d="M879.86,-217.48C876.66,-216.96 873.49,-216.47 870.38,-216 726.89,-194.55 686.81,-202.53 539.83,-180.14"/>
<polygon fill="black" stroke="black" points="539.95,-176.62 529.53,-178.55 538.88,-183.53 539.95,-176.62"/>
</g>
<!-- [root] aws_internet_gateway.my_gateway (expand) -->
<g id="node4" class="node">
<title>[root] aws_internet_gateway.my_gateway (expand)</title>
<polygon fill="none" stroke="black" points="987.38,-180 721.38,-180 721.38,-144 987.38,-144 987.38,-180"/>
<text text-anchor="middle" x="854.38" y="-158.3" font-family="Times,serif" font-size="14.00">aws_internet_gateway.my_gateway</text>
</g>
<!-- [root] aws_vpc.my_vpc (expand) -->
<g id="node13" class="node">
<title>[root] aws_vpc.my_vpc (expand)</title>
<polygon fill="none" stroke="black" points="772.38,-108 638.38,-108 638.38,-72 772.38,-72 772.38,-108"/>
<text text-anchor="middle" x="705.38" y="-86.3" font-family="Times,serif" font-size="14.00">aws_vpc.my_vpc</text>
</g>
<!-- [root] aws_internet_gateway.my_gateway (expand)&#45;&gt;[root] aws_vpc.my_vpc (expand) -->
<g id="edge6" class="edge">
<title>[root] aws_internet_gateway.my_gateway (expand)&#45;&gt;[root] aws_vpc.my_vpc (expand)</title>
<path fill="none" stroke="black" d="M817.93,-143.88C797.74,-134.39 772.46,-122.51 750.97,-112.42"/>
<polygon fill="black" stroke="black" points="752.25,-109.15 741.71,-108.07 749.28,-115.49 752.25,-109.15"/>
</g>
<!-- [root] aws_nat_gateway.my_nat_gateway (expand) -->
<g id="node5" class="node">
<title>[root] aws_nat_gateway.my_nat_gateway (expand)</title>
<polygon fill="none" stroke="black" points="456.38,-252 194.38,-252 194.38,-216 456.38,-216 456.38,-252"/>
<text text-anchor="middle" x="325.38" y="-230.3" font-family="Times,serif" font-size="14.00">aws_nat_gateway.my_nat_gateway</text>
</g>
<!-- [root] aws_nat_gateway.my_nat_gateway (expand)&#45;&gt;[root] aws_eip.nat_eip (expand) -->
<g id="edge7" class="edge">
<title>[root] aws_nat_gateway.my_nat_gateway (expand)&#45;&gt;[root] aws_eip.nat_eip (expand)</title>
<path fill="none" stroke="black" d="M325.38,-215.87C325.38,-191.67 325.38,-147.21 325.38,-118.39"/>
<polygon fill="black" stroke="black" points="328.88,-118.19 325.38,-108.19 321.88,-118.19 328.88,-118.19"/>
</g>
<!-- [root] aws_nat_gateway.my_nat_gateway (expand)&#45;&gt;[root] aws_subnet.public (expand) -->
<g id="edge8" class="edge">
<title>[root] aws_nat_gateway.my_nat_gateway (expand)&#45;&gt;[root] aws_subnet.public (expand)</title>
<path fill="none" stroke="black" d="M357.18,-215.88C374.5,-206.55 396.1,-194.92 414.64,-184.94"/>
<polygon fill="black" stroke="black" points="416.31,-188.01 423.46,-180.19 412.99,-181.85 416.31,-188.01"/>
</g>
<!-- [root] aws_route_table.private_route (expand) -->
<g id="node6" class="node">
<title>[root] aws_route_table.private_route (expand)</title>
<polygon fill="none" stroke="black" points="467.88,-324 234.88,-324 234.88,-288 467.88,-288 467.88,-324"/>
<text text-anchor="middle" x="351.38" y="-302.3" font-family="Times,serif" font-size="14.00">aws_route_table.private_route</text>
</g>
<!-- [root] aws_route_table.private_route (expand)&#45;&gt;[root] aws_nat_gateway.my_nat_gateway (expand) -->
<g id="edge9" class="edge">
<title>[root] aws_route_table.private_route (expand)&#45;&gt;[root] aws_nat_gateway.my_nat_gateway (expand)</title>
<path fill="none" stroke="black" d="M344.95,-287.7C342.03,-279.81 338.49,-270.3 335.24,-261.55"/>
<polygon fill="black" stroke="black" points="338.5,-260.26 331.73,-252.1 331.94,-262.7 338.5,-260.26"/>
</g>
<!-- [root] aws_route_table.public_route (expand) -->
<g id="node7" class="node">
<title>[root] aws_route_table.public_route (expand)</title>
<polygon fill="none" stroke="black" points="861.88,-252 636.88,-252 636.88,-216 861.88,-216 861.88,-252"/>
<text text-anchor="middle" x="749.38" y="-230.3" font-family="Times,serif" font-size="14.00">aws_route_table.public_route</text>
</g>
<!-- [root] aws_route_table.public_route (expand)&#45;&gt;[root] aws_internet_gateway.my_gateway (expand) -->
<g id="edge10" class="edge">
<title>[root] aws_route_table.public_route (expand)&#45;&gt;[root] aws_internet_gateway.my_gateway (expand)</title>
<path fill="none" stroke="black" d="M775.07,-215.88C788.67,-206.81 805.55,-195.55 820.24,-185.76"/>
<polygon fill="black" stroke="black" points="822.22,-188.65 828.6,-180.19 818.34,-182.82 822.22,-188.65"/>
</g>
<!-- [root] aws_route_table_association.private_association (expand) -->
<g id="node8" class="node">
<title>[root] aws_route_table_association.private_association (expand)</title>
<polygon fill="none" stroke="black" points="702.38,-396 342.38,-396 342.38,-360 702.38,-360 702.38,-396"/>
<text text-anchor="middle" x="522.38" y="-374.3" font-family="Times,serif" font-size="14.00">aws_route_table_association.private_association</text>
</g>
<!-- [root] aws_route_table_association.private_association (expand)&#45;&gt;[root] aws_route_table.private_route (expand) -->
<g id="edge11" class="edge">
<title>[root] aws_route_table_association.private_association (expand)&#45;&gt;[root] aws_route_table.private_route (expand)</title>
<path fill="none" stroke="black" d="M480.55,-359.88C456.97,-350.22 427.32,-338.09 402.38,-327.88"/>
<polygon fill="black" stroke="black" points="403.66,-324.62 393.08,-324.07 401.01,-331.1 403.66,-324.62"/>
</g>
<!-- [root] aws_route_table_association.private_association (expand)&#45;&gt;[root] aws_subnet.private (expand) -->
<g id="edge12" class="edge">
<title>[root] aws_route_table_association.private_association (expand)&#45;&gt;[root] aws_subnet.private (expand)</title>
<path fill="none" stroke="black" d="M524.1,-359.68C526.37,-341.31 531.33,-311.71 541.38,-288 557.27,-250.53 584.89,-212.42 604.1,-188.29"/>
<polygon fill="black" stroke="black" points="606.94,-190.34 610.51,-180.37 601.5,-185.94 606.94,-190.34"/>
</g>
<!-- [root] aws_route_table_association.public_route_table_association (expand) -->
<g id="node9" class="node">
<title>[root] aws_route_table_association.public_route_table_association (expand)</title>
<polygon fill="none" stroke="black" points="990.38,-324 550.38,-324 550.38,-288 990.38,-288 990.38,-324"/>
<text text-anchor="middle" x="770.38" y="-302.3" font-family="Times,serif" font-size="14.00">aws_route_table_association.public_route_table_association</text>
</g>
<!-- [root] aws_route_table_association.public_route_table_association (expand)&#45;&gt;[root] aws_route_table.public_route (expand) -->
<g id="edge13" class="edge">
<title>[root] aws_route_table_association.public_route_table_association (expand)&#45;&gt;[root] aws_route_table.public_route (expand)</title>
<path fill="none" stroke="black" d="M765.19,-287.7C762.85,-279.9 760.03,-270.51 757.43,-261.83"/>
<polygon fill="black" stroke="black" points="760.74,-260.68 754.51,-252.1 754.03,-262.69 760.74,-260.68"/>
</g>
<!-- [root] aws_route_table_association.public_route_table_association (expand)&#45;&gt;[root] aws_subnet.public (expand) -->
<g id="edge14" class="edge">
<title>[root] aws_route_table_association.public_route_table_association (expand)&#45;&gt;[root] aws_subnet.public (expand)</title>
<path fill="none" stroke="black" d="M719.82,-287.96C692.18,-278.23 657.53,-265.33 627.38,-252 580.66,-231.35 528.82,-203.86 494.39,-184.93"/>
<polygon fill="black" stroke="black" points="496.03,-181.84 485.59,-180.07 492.65,-187.97 496.03,-181.84"/>
</g>
<!-- [root] aws_security_group.all_traffic (expand)&#45;&gt;[root] aws_vpc.my_vpc (expand) -->
<g id="edge15" class="edge">
<title>[root] aws_security_group.all_traffic (expand)&#45;&gt;[root] aws_vpc.my_vpc (expand)</title>
<path fill="none" stroke="black" d="M1019.39,-143.97C946.48,-131.67 849.49,-115.31 782.7,-104.04"/>
<polygon fill="black" stroke="black" points="783.1,-100.56 772.66,-102.35 781.94,-107.46 783.1,-100.56"/>
</g>
<!-- [root] aws_subnet.private (expand)&#45;&gt;[root] aws_vpc.my_vpc (expand) -->
<g id="edge16" class="edge">
<title>[root] aws_subnet.private (expand)&#45;&gt;[root] aws_vpc.my_vpc (expand)</title>
<path fill="none" stroke="black" d="M645.16,-143.7C655.14,-134.97 667.39,-124.24 678.24,-114.75"/>
<polygon fill="black" stroke="black" points="680.61,-117.32 685.83,-108.1 676,-112.06 680.61,-117.32"/>
</g>
<!-- [root] var.subnet_cidr_block -->
<g id="node15" class="node">
<title>[root] var.subnet_cidr_block</title>
<polygon fill="none" stroke="black" points="600.38,-108 436.38,-108 436.38,-72 606.38,-72 606.38,-102 600.38,-108"/>
<polyline fill="none" stroke="black" points="600.38,-108 600.38,-102 "/>
<polyline fill="none" stroke="black" points="606.38,-102 600.38,-102 "/>
<text text-anchor="middle" x="521.38" y="-86.3" font-family="Times,serif" font-size="14.00">var.subnet_cidr_block</text>
</g>
<!-- [root] aws_subnet.private (expand)&#45;&gt;[root] var.subnet_cidr_block -->
<g id="edge17" class="edge">
<title>[root] aws_subnet.private (expand)&#45;&gt;[root] var.subnet_cidr_block</title>
<path fill="none" stroke="black" d="M599.94,-143.88C586.59,-134.89 570.06,-123.76 555.6,-114.03"/>
<polygon fill="black" stroke="black" points="557.17,-110.87 546.92,-108.19 553.26,-116.68 557.17,-110.87"/>
</g>
<!-- [root] aws_subnet.public (expand)&#45;&gt;[root] aws_vpc.my_vpc (expand) -->
<g id="edge18" class="edge">
<title>[root] aws_subnet.public (expand)&#45;&gt;[root] aws_vpc.my_vpc (expand)</title>
<path fill="none" stroke="black" d="M516.22,-143.97C551.91,-133.97 597.17,-121.3 634.47,-110.85"/>
<polygon fill="black" stroke="black" points="635.59,-114.18 644.27,-108.11 633.7,-107.44 635.59,-114.18"/>
</g>
<!-- [root] aws_subnet.public (expand)&#45;&gt;[root] var.subnet_cidr_block -->
<g id="edge19" class="edge">
<title>[root] aws_subnet.public (expand)&#45;&gt;[root] var.subnet_cidr_block</title>
<path fill="none" stroke="black" d="M471.7,-143.7C479.69,-135.22 489.45,-124.86 498.2,-115.58"/>
<polygon fill="black" stroke="black" points="500.94,-117.78 505.25,-108.1 495.85,-112.98 500.94,-117.78"/>
</g>
<!-- [root] aws_vpc.my_vpc (expand)&#45;&gt;[root] provider[&quot;registry.terraform.io/hashicorp/aws&quot;] -->
<g id="edge20" class="edge">
<title>[root] aws_vpc.my_vpc (expand)&#45;&gt;[root] provider[&quot;registry.terraform.io/hashicorp/aws&quot;]</title>
<path fill="none" stroke="black" d="M638.06,-76.24C630.41,-74.8 622.73,-73.37 615.38,-72 545.22,-58.96 465.46,-44.4 407.36,-33.85"/>
<polygon fill="black" stroke="black" points="407.97,-30.4 397.51,-32.06 406.72,-37.29 407.97,-30.4"/>
</g>
<!-- [root] var.vpc_cidr -->
<g id="node16" class="node">
<title>[root] var.vpc_cidr</title>
<polygon fill="none" stroke="black" points="764.38,-36 668.38,-36 668.38,0 770.38,0 770.38,-30 764.38,-36"/>
<polyline fill="none" stroke="black" points="764.38,-36 764.38,-30 "/>
<polyline fill="none" stroke="black" points="770.38,-30 764.38,-30 "/>
<text text-anchor="middle" x="719.38" y="-14.3" font-family="Times,serif" font-size="14.00">var.vpc_cidr</text>
</g>
<!-- [root] aws_vpc.my_vpc (expand)&#45;&gt;[root] var.vpc_cidr -->
<g id="edge21" class="edge">
<title>[root] aws_vpc.my_vpc (expand)&#45;&gt;[root] var.vpc_cidr</title>
<path fill="none" stroke="black" d="M708.84,-71.7C710.39,-63.98 712.24,-54.71 713.96,-46.11"/>
<polygon fill="black" stroke="black" points="717.43,-46.6 715.96,-36.1 710.57,-45.22 717.43,-46.6"/>
</g>
<!-- [root] provider[&quot;registry.terraform.io/hashicorp/aws&quot;] (close) -->
<g id="node17" class="node">
<title>[root] provider[&quot;registry.terraform.io/hashicorp/aws&quot;] (close)</title>
<ellipse fill="none" stroke="black" cx="956.38" cy="-450" rx="291.65" ry="18"/>
<text text-anchor="middle" x="956.38" y="-446.3" font-family="Times,serif" font-size="14.00">[root] provider[&quot;registry.terraform.io/hashicorp/aws&quot;] (close)</text>
</g>
<!-- [root] provider[&quot;registry.terraform.io/hashicorp/aws&quot;] (close)&#45;&gt;[root] aws_instance.private (expand) -->
<g id="edge22" class="edge">
<title>[root] provider[&quot;registry.terraform.io/hashicorp/aws&quot;] (close)&#45;&gt;[root] aws_instance.private (expand)</title>
<path fill="none" stroke="black" d="M973.72,-431.65C983.75,-421.45 996.5,-408.2 1007.38,-396 1049.03,-349.3 1094.97,-292.4 1120.48,-260.27"/>
<polygon fill="black" stroke="black" points="1123.35,-262.29 1126.82,-252.28 1117.86,-257.94 1123.35,-262.29"/>
</g>
<!-- [root] provider[&quot;registry.terraform.io/hashicorp/aws&quot;] (close)&#45;&gt;[root] aws_instance.public (expand) -->
<g id="edge23" class="edge">
<title>[root] provider[&quot;registry.terraform.io/hashicorp/aws&quot;] (close)&#45;&gt;[root] aws_instance.public (expand)</title>
<path fill="none" stroke="black" d="M967.53,-431.87C985.37,-402.23 1016.66,-339.57 999.38,-288 996.03,-278 989.97,-268.38 983.55,-260.14"/>
<polygon fill="black" stroke="black" points="986.2,-257.85 977.11,-252.4 980.82,-262.33 986.2,-257.85"/>
</g>
<!-- [root] provider[&quot;registry.terraform.io/hashicorp/aws&quot;] (close)&#45;&gt;[root] aws_route_table_association.private_association (expand) -->
<g id="edge24" class="edge">
<title>[root] provider[&quot;registry.terraform.io/hashicorp/aws&quot;] (close)&#45;&gt;[root] aws_route_table_association.private_association (expand)</title>
<path fill="none" stroke="black" d="M857.36,-433.03C792.02,-422.49 706.19,-408.65 637.76,-397.61"/>
<polygon fill="black" stroke="black" points="638.23,-394.14 627.8,-396 637.11,-401.05 638.23,-394.14"/>
</g>
<!-- [root] provider[&quot;registry.terraform.io/hashicorp/aws&quot;] (close)&#45;&gt;[root] aws_route_table_association.public_route_table_association (expand) -->
<g id="edge25" class="edge">
<title>[root] provider[&quot;registry.terraform.io/hashicorp/aws&quot;] (close)&#45;&gt;[root] aws_route_table_association.public_route_table_association (expand)</title>
<path fill="none" stroke="black" d="M933.95,-431.87C900.71,-406.5 838.3,-358.85 800.93,-330.32"/>
<polygon fill="black" stroke="black" points="802.97,-327.48 792.9,-324.19 798.72,-333.04 802.97,-327.48"/>
</g>
<!-- [root] root -->
<g id="node18" class="node">
<title>[root] root</title>
<ellipse fill="none" stroke="black" cx="956.38" cy="-522" rx="58.49" ry="18"/>
<text text-anchor="middle" x="956.38" y="-518.3" font-family="Times,serif" font-size="14.00">[root] root</text>
</g>
<!-- [root] root&#45;&gt;[root] provider[&quot;registry.terraform.io/hashicorp/aws&quot;] (close) -->
<g id="edge26" class="edge">
<title>[root] root&#45;&gt;[root] provider[&quot;registry.terraform.io/hashicorp/aws&quot;] (close)</title>
<path fill="none" stroke="black" d="M956.38,-503.7C956.38,-495.98 956.38,-486.71 956.38,-478.11"/>
<polygon fill="black" stroke="black" points="959.88,-478.1 956.38,-468.1 952.88,-478.1 959.88,-478.1"/>
</g>
</g>
</svg>
